<?xml version="1.0" encoding="utf-8"?>
<!-- Generator: Adobe Illustrator 16.0.0, SVG Export Plug-In . SVG Version: 6.00 Build 0)  -->
<!DOCTYPE svg PUBLIC "-//W3C//DTD SVG 1.1//EN" "http://www.w3.org/Graphics/SVG/1.1/DTD/svg11.dtd">
<svg version="1.1" id="Layer_1" xmlns="http://www.w3.org/2000/svg" xmlns:xlink="http://www.w3.org/1999/xlink" x="0px" y="0px"
	 width="612px" height="792px" viewBox="0 0 612 792" enable-background="new 0 0 612 792" xml:space="preserve">
<g>
	<ellipse opacity="0.59" fill="#C6C6D8" cx="306.061" cy="544.791" rx="224.292" ry="24.477"/>
	<path fill="#EFE2DF" d="M367.152,366.693c-3.073-28.294-84.196-32.94-93.879-33.395l-0.003-0.041c0,0-0.171,0.006-0.473,0.021
		c-0.304-0.014-0.475-0.021-0.475-0.021l-0.002,0.041c-9.684,0.455-74.631,2.413-77.705,30.708c0,0-36.157,87.643-23.895,133.617
		c0,0-30.132,45.852,22.063,45.528c0.678,1.042,1.547,1.949,2.67,2.644c2.107,1.306,4.679,1.573,7.152,1.746
		c12.832,0.899,25.782,0.1,38.407-2.369c2.857-0.559,6.279-1.798,6.671-4.682c0.191-1.404-0.449-2.771-0.993-4.081
		c-1.472-3.546-2.28-7.343-2.492-11.176c13.878,5.806,35.036,10.44,61.333,1.474c-0.428,2.207-1.054,4.373-1.916,6.451
		c-0.544,1.311-1.184,2.676-0.992,4.082c0.393,2.883,3.815,4.123,6.67,4.68c12.625,2.469,25.573,3.27,38.406,2.371
		c1.999-0.141,4.046-0.371,5.877-1.131c53.01,0.262,56.904-38.545,56.904-38.545C422.745,458.642,367.152,366.693,367.152,366.693z"
		/>
	<path fill="#DCCCC7" d="M229.895,384.72c-6.074,28.609,1.969,59.868,21.097,81.993c4.187-3.764,7.546-8.445,9.768-13.617
		c6.896,8.27,10.486,19.223,9.825,29.971c21.906-7.2,40.064-24.975,47.732-46.723c3.426,5.17,5.794,11.038,6.913,17.139
		c9.244-11.072,11.251-26.457,11.025-40.879c-0.207-13.208-2.633-27.69-12.695-36.244c-9.24-7.854-22.382-8.605-34.502-8.984
		c-18.572-0.579-38.396-0.837-54.128,9.052c-3.829,2.405-7.7,6.833-5.791,10.932"/>
	<path fill="#A87144" d="M202.084,526.064c-10.087-61.581,30.083-144.015,30.083-144.015l-36.524-12.145
		c-30.359,32.078-41.294,64.333-43.037,92.246c-0.893,0.582-1.775,1.25-2.636,2.042c0,0-22.026,20.19,3.67,56.289
		c0,0-19.93,10.544-11.365,22.168c0,0,1.465,1.788,5.527,2.602c2.545,0.509,7.492-0.555,15.767,0.163c0,0,28.834,0.656,34.95,1.3
		c4.041,0.425,6.941,0.57,8.483,0.622c0.239,0.02,0.477,0.018,0.716,0.02c0.349,0.008,0.554,0.009,0.554,0.009
		c1.113-0.058,0.077-1.702-0.965-3.316L202.084,526.064z"/>
	<path fill="#A87144" d="M355.525,522.164c10.087-61.582-30.08-144.016-30.08-144.016l7.828-15.93
		c-1.636-6.431,28.694,3.786,28.694,3.786c30.358,32.078,41.294,64.332,43.039,92.246c0.893,0.581,1.772,1.248,2.635,2.041
		c0,0,22.025,20.19-3.671,56.289c0,0,19.932,10.544,11.364,22.169c0,0-1.463,1.788-5.526,2.601
		c-2.546,0.509-7.493-0.555-15.768,0.162c0,0-28.833,0.656-34.948,1.301c-4.041,0.426-6.942,0.571-8.485,0.621
		c-0.236,0.021-0.476,0.019-0.713,0.021c-0.349,0.008-0.554,0.009-0.554,0.009c-1.115-0.059-0.079-1.702,0.962-3.316
		L355.525,522.164z"/>
	<path fill="#A87144" d="M364.808,539.398l126.79,3.901c0,0-21.476-126.687-95.254-84.526
		c-18.207,10.402-24.384,53.317-24.384,53.317L364.808,539.398z"/>
	<path fill="#A87144" d="M400.965,452.66c12.414-7.66,28.55-5.829,42.261-0.857c9.369,3.397,18.375,8.218,25.446,15.237
		s12.09,16.405,12.621,26.356c-9.71-9.369-26.982-9.228-36.538,0.299"/>
</g>
<g>
	<g>
		<path fill="#AD7951" d="M337.172,41.304c-44.216-37.638-81.937-19.028-97.143-8.286c-3.624,2.3-7.17,5.04-10.596,8.286
			c0,0-54.325,55.085-37.61,108.272c0,0,17.932,44.524,66.104-25.074c0,0,7.082-34.061,25.375-37.737
			c18.292,3.676,25.376,37.737,25.376,37.737c30.097,69.9,66.104,25.074,66.104,25.074
			C391.497,96.389,337.172,41.304,337.172,41.304z"/>
		<path fill="#DCCCC7" d="M251.67,152.074c0,0,21.135,19.51,67.741,2.167l-31.431-48.231l-25.473,6.503L251.67,152.074z"/>
		<path fill="#EFE2DF" d="M341.76,150.051c-6.461-1.521-17.667-12.253-17.667-12.253c-6.078-4.178-21.371-38.463-21.371-38.463
			c-2.063-4.347-4.246-7.597-6.463-10.008l0.038-0.155c0,0-0.473-0.467-1.317-1.136c-4.004-3.762-8.063-4.913-11.711-4.761
			c-3.646-0.152-7.705,0.999-11.71,4.761c-0.845,0.669-1.317,1.136-1.317,1.136l0.041,0.155c-2.218,2.412-4.401,5.662-6.467,10.008
			c0,0-14.142,35.292-20.218,39.471c0,0-6.648,6.647-13.901,14.806c0,0-3.625,4.533-4.834,6.646
			c-1.158,2.027,3.336,6.319,15.02,4.468c0,0,33.621-4.892,41.979-38.704l1.408-5.433l1.409,5.433
			c8.357,33.812,41.98,38.704,41.98,38.704c11.681,1.852,16.828-5.288,17.613-7.486C345.58,153.575,341.76,150.051,341.76,150.051z"
			/>
	</g>
	<g>
		<path fill="#EBC6C6" d="M221.374,49.552c-0.482-0.179-6.814-28.442-6.814-28.442s-1.626-4.783,0.58-5.376
			c0,0,5.151,1.487,6.764,2.633l23.714,16.949C245.617,35.315,224.727,50.799,221.374,49.552z"/>
		<path fill="#AD7951" d="M220.866,51.38c0,0-6.707-22.775-8.021-31.663c0,0-0.77-7.916,5.992-4.62c0,0,24.793,15.945,28.313,18.943
			l-4.082,5.435c0,0-23.434-21.31-25.803-21.56c0,0-2.511-1.522-1.855,1.846c0.22,1.129,7.232,28.764,7.232,28.764
			S224.996,53.128,220.866,51.38z"/>
	</g>
	<g>
		<path fill="#EBC6C6" d="M344.283,48.614c0.483-0.179,8.354-30.41,8.354-30.41s1.625-4.784-0.58-5.376c0,0-5.15,1.486-6.765,2.632
			l-23.712,16.949C321.581,32.409,340.931,49.86,344.283,48.614z"/>
		<path fill="#AD7951" d="M346.556,53.79c0,0,8.402-26.828,9.717-35.716c0,0,2.272-10.349-7.912-5.883
			c0,0-24.796,15.945-28.315,18.942l4.081,5.435c0,0,23.436-21.31,25.804-21.56c0,0,2.513-1.522,1.857,1.846
			c-0.222,1.13-7.233,28.766-7.233,28.766S342.427,55.538,346.556,53.79z"/>
	</g>
	<path fill="#F7AE8B" d="M292.939,94.162c0.082-2.586-4.251-4.822-9.679-4.994c-5.426-0.17-9.892,1.788-9.974,4.375
		c-0.044,1.421,1.273,2.721,3.342,3.646c0.342,2.262,3.132,4.1,6.622,4.209c3.673,0.116,6.707-1.725,6.94-4.14
		C291.848,96.474,292.902,95.394,292.939,94.162z"/>
	<g>
		<path fill="#F8FCFF" d="M237.325,80.539c0,0,12.101,14.765,27.454,7.245c0,0-1.335-21.608-16.698-15.742
			C247.357,72.318,238.804,76.165,237.325,80.539z"/>
		<path fill="#5E3C21" d="M247.764,88.442c0.318,0.089,9.466-11.001,0.317-16.4c0,0-8.102,2.326-11.062,8.464
			C237.02,80.506,241.274,86.622,247.764,88.442z"/>
	</g>
	<g>
		<path fill="#F8FCFF" d="M329.03,86.129c0,0-15.765,10.764-28.381-0.772c0,0,7.358-20.36,20.45-10.408
			C321.716,75.418,328.844,81.516,329.03,86.129z"/>
		<path fill="#5E3C21" d="M311.732,90.665c0.331-0.004,7.81-12.288-2.362-17.123c0,0-7.02,4.041-8.813,11.833
			C300.558,85.375,304.993,90.753,311.732,90.665z"/>
	</g>
</g>
<path fill="#EFE2DF" d="M367.124,366.693c-3.073-28.294-84.196-32.94-93.879-33.395l-0.003-0.041c0,0-0.171,0.006-0.473,0.021
	c-0.304-0.014-0.475-0.021-0.475-0.021l-0.002,0.041c-9.684,0.455-74.631,2.413-77.705,30.708c0,0,5.912,26.605,92.571,25.994
	C373.322,389.392,367.124,366.693,367.124,366.693z"/>
</svg>
